<svg xmlns="http://www.w3.org/2000/svg" viewBox="0 0 500 500" width="500" height="500">
  <rect width="500" height="500" fill="#0D0D0D"/>
  <polyline points="55,110 55,55 110,55" fill="none" stroke="#C9A84C" stroke-width="1.5" stroke-linecap="square"/>
  <polyline points="445,390 445,445 390,445" fill="none" stroke="#C9A84C" stroke-width="1.5" stroke-linecap="square"/>
  <path d="M 168 118 L 168 320 L 262 320 Q 322 320 322 268 Q 322 234 292 222 Q 322 210 322 172 Q 322 118 262 118 Z M 204 148 L 255 148 Q 286 148 286 172 Q 286 202 255 202 L 204 202 Z M 204 232 L 258 232 Q 294 232 294 268 Q 294 294 258 294 L 204 294 Z" fill="#FFFFFF"/>
  <line x1="168" y1="344" x2="332" y2="344" stroke="#C9A84C" stroke-width="1"/>
  <circle cx="168" cy="344" r="2.5" fill="#C9A84C"/>
  <circle cx="332" cy="344" r="2.5" fill="#C9A84C"/>
  <text x="250" y="380" font-family="Georgia, 'Times New Roman', serif" font-size="38" font-weight="700" fill="#FFFFFF" text-anchor="middle" letter-spacing="8">brioo</text>
  <text x="254" y="402" font-family="'Helvetica Neue', Arial, sans-serif" font-size="9.5" font-weight="400" fill="#C9A84C" text-anchor="middle" letter-spacing="11">AGENCY</text>
</svg>